<svg width="192" height="192" viewBox="0 0 192 192" fill="none" xmlns="http://www.w3.org/2000/svg">
<rect width="192" height="192" rx="24" fill="#1F0D1E"/>
<path fill-rule="evenodd" clip-rule="evenodd" d="M84.5408 60.7042C84.5408 38.6844 98.6326 18.8092 122.581 19.5184C128.797 19.7805 134.837 21.6576 140.105 24.9643C152.954 32.9346 163.622 50.2178 164.78 78.7641C164.89 81.5757 164.958 82.4622 164.882 85.2737C164.341 103.697 159.379 120.364 149.344 132.918C139.809 144.832 126.098 152.802 107.737 154.871V172.5H84.507V154.871C46.8979 150.649 28.9852 121.664 27.472 86.7513C27.2588 81.7354 27.3972 76.7107 27.8862 71.714C29.5769 54.642 35.3675 41.496 43.1023 28.3584H67.4565C63.5426 37.3842 58.6988 47.0178 55.4104 56.1449C52.1028 64.7629 50.4814 73.9347 50.6343 83.163C50.9386 106.297 59.4173 127.304 84.5323 131.525V60.7042H84.5408ZM107.771 131.517C118.202 129.769 125.92 125.134 131.22 118.506C137.822 110.24 141.17 98.6309 141.66 85.3582C141.758 83.5442 141.758 81.7263 141.66 79.9124C140.942 60.1638 134.991 49.0695 127.847 44.6368C125.993 43.4451 123.861 42.7528 121.66 42.6273C119.683 42.5648 117.723 43.0127 115.971 43.9276C111.254 46.3677 107.728 52.2188 107.728 60.7042V131.517H107.771Z" fill="url(#paint0_linear_7_3)"/>
<defs>
<linearGradient id="paint0_linear_7_3" x1="27.375" y1="102.8" x2="164.926" y2="103.055" gradientUnits="userSpaceOnUse">
<stop stop-color="#3CB8FF"/>
<stop offset="1" stop-color="#1CDBB9"/>
</linearGradient>
</defs>
</svg>
